<mxfile host="65bd71144e">
    <diagram id="f_Mr4On2IaXt8ZjSOr1O" name="Page-1">
        <mxGraphModel dx="532" dy="415" grid="1" gridSize="10" guides="1" tooltips="1" connect="1" arrows="1" fold="1" page="1" pageScale="1" pageWidth="827" pageHeight="1169" math="0" shadow="0">
            <root>
                <mxCell id="0"/>
                <mxCell id="1" parent="0"/>
                <mxCell id="2" value="app" style="shape=ext;double=1;rounded=0;whiteSpace=wrap;html=1;" vertex="1" parent="1">
                    <mxGeometry x="210" width="120" height="80" as="geometry"/>
                </mxCell>
                <mxCell id="3" value="bellow" style="shape=ext;double=1;rounded=0;whiteSpace=wrap;html=1;" vertex="1" parent="1">
                    <mxGeometry x="210" y="100" width="120" height="80" as="geometry"/>
                </mxCell>
                <mxCell id="4" value="accordion" style="shape=ext;double=1;rounded=1;whiteSpace=wrap;html=1;" vertex="1" parent="1">
                    <mxGeometry x="50" y="220" width="120" height="80" as="geometry"/>
                </mxCell>
                <mxCell id="5" value="accordion" style="shape=ext;double=1;rounded=1;whiteSpace=wrap;html=1;" vertex="1" parent="1">
                    <mxGeometry x="230" y="220" width="120" height="80" as="geometry"/>
                </mxCell>
                <mxCell id="6" value="" style="shape=ext;double=1;rounded=1;whiteSpace=wrap;html=1;" vertex="1" parent="1">
                    <mxGeometry x="414" y="220" width="120" height="80" as="geometry"/>
                </mxCell>
            </root>
        </mxGraphModel>
    </diagram>
</mxfile>